<svg xmlns="http://www.w3.org/2000/svg" version="1.1" viewBox="0.00 0.00 400.00 400.00" width="400.00" height="400.00">
<path fill="#c65d26" d="&#10;  M 82.21 169.78&#10;  A 1.43 1.43 0.0 0 0 81.18 168.41&#10;  Q 79.62 167.98 77.58 167.89&#10;  Q 60.54 167.17 42.60 168.00&#10;  Q 41.25 168.06 40.19 167.88&#10;  A 0.80 0.80 0.0 0 1 39.53 167.09&#10;  L 39.53 127.62&#10;  Q 39.53 126.72 40.43 126.72&#10;  L 169.77 126.72&#10;  Q 171.89 126.72 169.87 127.37&#10;  C 166.44 128.47 162.14 129.68 158.76 131.44&#10;  C 139.80 141.32 126.72 157.89 119.70 178.23&#10;  C 115.37 190.75 115.34 203.70 116.38 217.72&#10;  Q 116.76 222.81 118.23 227.72&#10;  Q 120.21 234.35 121.76 237.38&#10;  Q 123.71 241.18 124.61 243.24&#10;  Q 126.11 246.64 127.58 248.88&#10;  Q 136.19 262.03 148.50 271.42&#10;  Q 148.93 271.75 148.51 271.75&#10;  L 83.10 271.26&#10;  A 0.90 0.90 0.0 0 1 82.21 270.36&#10;  L 82.21 169.78&#10;  Z"/>
<path fill="#c65d26" d="&#10;  M 291.32 180.26&#10;  L 335.30 180.26&#10;  A 1.31 1.30 -90.0 0 1 336.60 181.57&#10;  L 336.60 216.55&#10;  A 1.02 1.02 0.0 0 1 335.59 217.57&#10;  Q 324.47 217.64 319.03 217.98&#10;  Q 304.95 218.87 291.45 218.46&#10;  A 1.38 1.37 -89.0 0 0 290.03 219.84&#10;  L 290.03 229.45&#10;  Q 290.03 231.61 292.19 231.61&#10;  L 357.62 231.61&#10;  A 0.81 0.81 0.0 0 1 358.43 232.42&#10;  L 358.43 270.51&#10;  Q 358.43 271.66 357.28 271.66&#10;  L 242.24 271.66&#10;  Q 241.12 271.66 241.12 270.54&#10;  L 241.12 127.59&#10;  Q 241.12 126.88 241.83 126.88&#10;  L 356.95 126.88&#10;  A 1.56 1.55 -90.0 0 1 358.50 128.44&#10;  L 358.50 166.60&#10;  A 1.39 1.39 0.0 0 1 357.11 167.99&#10;  L 292.01 167.99&#10;  A 1.53 1.52 -90.0 0 0 290.49 169.52&#10;  L 290.49 179.43&#10;  A 0.83 0.83 0.0 0 0 291.32 180.26&#10;  Z"/>
<path fill="#c65d26" d="&#10;  M 181.61 229.45&#10;  C 175.52 225.30 170.86 219.23 169.30 211.90&#10;  Q 166.49 198.68 174.78 187.27&#10;  C 179.89 180.24 188.40 175.28 197.09 175.34&#10;  C 209.26 175.41 218.99 184.38 223.02 195.62&#10;  Q 226.23 204.56 223.67 213.19&#10;  Q 221.12 221.75 214.36 227.06&#10;  C 205.45 234.04 191.54 236.22 181.61 229.45&#10;  Z"/>
</svg>